<svg version="1.1" xmlns="http://www.w3.org/2000/svg" xmlns:xlink="http://www.w3.org/1999/xlink" width="38.34291" height="20.75" viewBox="0,0,38.34291,20.75"><defs><linearGradient x1="231.39887" y1="180" x2="248.60113" y2="180" gradientUnits="userSpaceOnUse" id="color-1"><stop offset="0" stop-color="#ff0a74"/><stop offset="1" stop-color="#ff00b7"/></linearGradient></defs><g transform="translate(-212.3125,-169.625)"><g data-paper-data="{&quot;isPaintingLayer&quot;:true}" fill-rule="nonzero" stroke="none" stroke-width="0" stroke-linecap="butt" stroke-linejoin="miter" stroke-miterlimit="10" stroke-dasharray="" stroke-dashoffset="0" style="mix-blend-mode: normal"><path d="M250.65541,180c0,5.72995 -4.77059,10.375 -10.65541,10.375c-5.88482,0 -10.65541,-4.64505 -10.65541,-10.375c0,-5.72995 4.77059,-10.375 10.65541,-10.375c5.88482,0 10.65541,4.64505 10.65541,10.375z" fill="none"/><path d="M248.60113,180c0,4.72487 -3.85085,8.55512 -8.60113,8.55512c-4.75027,0 -8.60113,-3.83026 -8.60113,-8.55512c0,-4.72487 3.85085,-8.55512 8.60113,-8.55512c4.75027,0 8.60113,3.83026 8.60113,8.55512z" fill="url(#color-1)"/><ellipse cx="424.625" cy="360.45313" transform="scale(0.5,0.5)" rx="0" ry="0" fill="none"/></g></g></svg>