<svg version="1.1" xmlns="http://www.w3.org/2000/svg" xmlns:xlink="http://www.w3.org/1999/xlink" width="540.23454" height="401.9306" viewBox="0,0,540.23454,401.9306"><defs><linearGradient x1="148.76426" y1="390.73092" x2="310.04657" y2="-72.77551" gradientUnits="userSpaceOnUse" id="color-1"><stop offset="0" stop-color="#20503b"/><stop offset="1" stop-color="#85c7bf"/></linearGradient></defs><g transform="translate(19.01209,17.3974)"><g data-paper-data="{&quot;isPaintingLayer&quot;:true}" fill="url(#color-1)" fill-rule="nonzero" stroke="none" stroke-width="0" stroke-linecap="butt" stroke-linejoin="miter" stroke-miterlimit="10" stroke-dasharray="" stroke-dashoffset="0" style="mix-blend-mode: normal"><path d="M-9.95876,360.11243c0.03403,-0.1256 0.06696,-0.2516 0.09874,-0.37802c1.21365,-4.82795 0,-9.95632 0,-14.93448c0,-4.80541 0.59775,-10.31112 -0.12913,-15.04286c-0.23902,-1.55598 -1.20648,-2.93249 -1.49345,-4.48034c-0.54448,-2.93685 0.45351,-6.00842 0,-8.96069c-0.23902,-1.55598 -1.1368,-2.94705 -1.49345,-4.48034c-0.45114,-1.93949 0.3507,-4.01365 0,-5.97379c-0.27725,-1.54962 -1.23114,-2.92812 -1.49344,-4.48034c-0.28759,-1.70184 0.19996,-3.48357 -0.13838,-5.17605c-0.21821,-1.09156 -1.22347,-1.90698 -1.49345,-2.9869c-0.24148,-0.96591 0.24147,-2.02099 0,-2.9869c-0.26998,-1.07992 -1.22347,-1.90698 -1.49345,-2.9869c-0.24148,-0.96591 0.24148,-2.02099 0,-2.9869c-0.21548,-0.86192 -0.81403,-1.57801 -1.22593,-2.36889c0,-1.92924 0,-3.85848 0,-5.78772v0c0,-0.39148 0,-0.78296 0,-1.17444c0.01385,-0.75247 0.04043,-1.50625 0,-2.25313c0,-6.31579 0,-12.63157 0,-18.94735c0,-28.37552 0,-56.75104 0,-85.12656c0,-7.96506 0,-15.93011 0,-23.89517c0,-2.65849 -0.39605,-5.33962 -0.04867,-7.97531c0.33168,-2.51661 1.15433,-4.95162 1.49345,-7.46724c0.69099,-5.12576 0.04866,-10.74495 0.04866,-15.91986c0,-11.44977 0,-22.89954 0,-34.34931c0,-27.52326 0,-55.04652 0,-82.56979c0.18579,-0.05735 0.37312,-0.10908 0.56251,-0.15314c1.42005,-0.33031 2.91401,0.12913 4.37197,0.12913c3.48471,0 6.96943,0 10.45414,0c8.46288,0 16.92575,0 25.38863,0c2.1197,0 13.80187,0.01717 14.66287,-0.07492c2.04091,-0.2183 3.94506,-1.18174 5.9738,-1.49344c2.95225,-0.4536 6.00038,0.39764 8.96069,0c2.03428,-0.27325 3.95488,-1.12338 5.97379,-1.49345c2.33201,-0.42746 5.36113,0.07493 7.73886,0.07493c4.48035,0 8.9607,0 13.44104,0c26.38425,0 52.76851,0 79.15276,0c4.02803,0 8.83287,0.63402 12.75167,-0.26751c2.38642,-0.549 4.37086,-2.36563 6.77154,-2.84851c1.95217,-0.39266 4.01365,0.3507 5.97379,0c1.54962,-0.27725 2.94705,-1.1368 4.48035,-1.49345c1.42005,-0.33031 2.91402,0.12913 4.37198,0.12913c3.98039,0 7.96786,0.06784 11.94759,0c3.07058,-0.05234 6.07789,-0.92682 9.06906,-1.62258c1.90476,-0.44305 3.90981,0.12913 5.86542,0.12913c3.48471,0 6.96943,0 10.45414,0c2.57437,0 8.06366,0.03927 9.76477,-0.26751c1.09548,-0.19755 1.93091,-1.1413 2.9869,-1.49344c1.16556,-0.38869 2.4476,0.26751 3.67626,0.26751c4.48035,0 8.96069,0 13.44104,0c13.44104,0 26.88207,0 40.32311,0c4.97816,0 9.95632,0 14.93448,0c1.22866,0 2.5107,-0.6562 3.67627,-0.26751c1.05599,0.35215 1.89141,1.29589 2.9869,1.49344c2.22515,0.40128 4.51767,0.20559 6.77787,0.26751c12.92204,0.35401 25.90133,0 38.82966,0c6.38477,0 13.96113,1.06477 20.21891,-0.26751c1.08875,-0.23179 1.90378,-1.23659 2.9869,-1.49344c1.67898,-0.39815 3.44417,0.26751 5.16971,0.26751c4.88355,0 10.95776,0.75032 15.73856,-0.26751c1.08875,-0.23179 1.93091,-1.14131 2.9869,-1.49345c1.10264,-0.3677 5.30745,0.31136 6.66316,0.26751c1.76281,-0.05701 3.55935,0.09975 5.28442,-0.26751c1.08875,-0.23179 1.93091,-1.1413 2.9869,-1.49345c0.90292,-0.3011 7.60096,0.26751 8.15661,0.26751c8.46287,0 16.92575,0 25.38862,0c1.22135,0 2.50783,0.04912 3.82173,0.10192l5.14717,6.3096c3.70222,1.85111 7.15824,3.46114 11.09944,4.77487c1.5054,0.66238 2.92633,1.56607 4.5162,1.98714c0.40698,0.10778 0.83114,0.08124 1.25822,0.03295c0,10.18589 0,20.37178 0,30.55767c0,1.60248 -0.00442,28.55024 0.01531,28.92853c0.23479,4.5018 1.25428,8.93946 1.49345,13.44103c0.78326,14.74294 -0.91092,29.66394 -0.11662,44.4106c-0.39276,0.66554 -0.96544,1.27498 -1.12462,2.02267c-0.36726,1.72507 -0.17834,3.52295 -0.26751,5.28442c0,1.72554 0.81338,3.53279 0.26751,5.16971c-0.35215,1.05599 -1.26165,1.89814 -1.49345,2.98689c-0.36726,1.72507 -0.2105,3.52162 -0.26751,5.28443c-0.0677,2.09323 0.79006,6.58962 0.26751,8.15661c-0.35215,1.05598 -1.29589,1.89142 -1.49345,2.9869c-1.31577,7.29614 -0.26751,15.78643 -0.26751,23.20581c0,15.4323 0,30.8646 0,46.2969c0,17.90179 -0.49021,35.87019 0,53.76414c0.06192,2.2602 -0.13377,4.55272 0.26751,6.77787c0.19756,1.09548 1.1413,1.93091 1.49345,2.9869c0.54587,1.63693 -0.26751,3.44417 -0.26751,5.16971c0,1.99126 0,3.98253 0,5.97379c0.08917,1.76148 -0.09975,3.55935 0.26751,5.28442c0.23179,1.08875 1.1413,1.93091 1.49345,2.9869c0.80428,2.41183 -0.3614,8.24043 -0.26751,11.14351c0.05701,1.76281 -0.09975,3.55936 0.26751,5.28443c0.23179,1.08875 1.1413,1.93091 1.49345,2.9869c0.62993,1.889 -0.41465,4.02618 0,5.97379c0.23179,1.08875 1.1413,1.93091 1.49345,2.9869c0.62993,1.889 -0.41465,4.02618 0,5.97379c0.23179,1.08875 1.1413,1.93091 1.49345,2.9869c0.47989,1.43907 -0.24003,7.83329 0,8.96069c0.13912,0.65345 0.54951,1.21008 0.91527,1.78383c-2.8566,13.09674 -5.8848,23.99935 -9.09298,31.70644c-0.74504,0.19853 -1.4685,0.38393 -2.10922,0.4823c-3.781,0 -7.562,0 -11.343,0c-29.37115,0 -58.74231,0 -88.11346,0c-9.17913,0 -18.98015,-0.90097 -28.1039,0.07492c-2.04091,0.2183 -3.93494,1.25676 -5.97379,1.49345c-3.87768,0.45016 -7.83487,-0.48845 -11.71113,-0.02625c-2.52052,0.30054 -4.94577,1.20097 -7.46724,1.49345c-5.0233,0.58267 -10.13761,-0.46235 -15.17094,0.02626c-2.04294,0.19832 -3.93709,1.23886 -5.97379,1.49345c-1.97589,0.24698 -3.9979,-0.24698 -5.97379,0c-2.0367,0.25459 -3.93896,1.22433 -5.97379,1.49345c-6.68753,0.88446 -14.46463,-0.07493 -21.17989,-0.07493c-15.4323,0 -30.8646,0 -46.2969,0c-14.93448,0 -29.86897,0 -44.80346,0c-4.48034,0 -8.96069,0 -13.44103,0c-2.95109,0 -5.93566,0.57864 -8.85231,0.12912c-1.55587,-0.23979 -2.92436,-1.25442 -4.48034,-1.49345c-7.46302,-1.14644 -15.33766,0.93031 -22.78172,-0.0542c-2.03483,-0.26911 -3.93951,-1.22019 -5.97379,-1.49345c-7.10538,-0.95443 -14.95272,-0.07493 -22.13011,-0.07493c-37.33621,0 -74.67242,0 -112.00863,0c0,0 -0.13652,0 -0.37765,0.01595c-1.40701,-4.62908 -3.5415,-11.79487 -6.14902,-21.00034z"/><path d="M521.22245,24.32074c-0.04275,0.02298 -0.08495,0.04649 -0.12663,0.07051c0.04324,-0.11863 0.08556,-0.23748 0.12663,-0.35666c0,0.09539 0,0.19077 0,0.28616z"/></g></g></svg>